#!OML:ASF E:\emotionWalksFemale\Project 1\Capture day 1\Session 1\Female1.ASF
:FULLY-SPECIFIED
:DEGREES
2868
root 8.34472 14.9603 41.2917 -183.258 -1.83656 -177.8
lowerback 7.2834 2.75938 1.12997
upperback 1.08124 3.6878 -0.166063
thorax -2.87648 1.79315 -1.1552
lowerneck -4.85926 2.66627 -3.50143
upperneck 44.0097 -3.74384 0.462518
head 16.8858 -4.55908 -0.450189
rclavicle 3.14328e-015 -8.74653e-015
rhumerus -35.8638 18.5278 -97.0902
rradius 29.987
rwrist 22.9911
rhand -7.20899 -49.8731
rfingers 7.12502
rthumb 18.6698 -78.9972
lclavicle 3.14328e-015 -8.74653e-015
lhumerus -34.8628 -5.43872 88.2139
lradius 34.3664
lwrist -16.0958
lhand 2.24211 -28.7108
lfingers 7.12502
lthumb 27.7361 -0.736665
rfemur -2.45442 7.47236 29.362
rtibia 30.8785
rfoot -27.6128 -30.944
rtoes 10.9679
lfemur -10.8678 -15.5726 -21.3852
ltibia 38.362
lfoot -27.0869 1.14275
ltoes -15.5837
2869
root 8.35366 14.9656 41.302 -183.221 -2.37878 -177.657
lowerback 7.06611 2.64801 1.13333
upperback 1.12266 3.53826 -0.152006
thorax -2.71721 1.72103 -1.11603
lowerneck -4.89446 2.65717 -3.57015
upperneck 44.0518 -3.7215 0.419001
head 16.9184 -4.56369 -0.455793
rclavicle 1.19892e-014 7.95139e-016
rhumerus -35.9243 19.0397 -97.243
rradius 30.1973
rwrist 22.4142
rhand -7.31897 -50.0758
rfingers 7.12502
rthumb 18.564 -79.21
lclavicle 1.19892e-014 7.95139e-016
lhumerus -35.0584 -5.35756 88.2845
lradius 33.9514
lwrist -17.144
lhand 0.812981 -29.0456
lfingers 7.12502
lthumb 26.3688 -0.859065
rfemur -2.34701 7.42961 29.592
rtibia 30.5433
rfoot -28.139 -31.1774
rtoes 13.3995
lfemur -11.0112 -16.2022 -21.2092
ltibia 38.3449
lfoot -26.9918 1.16831
ltoes -15.5212
2870
root 8.3637 14.9725 41.3141 -183.082 -3.08707 -177.553
lowerback 6.79165 2.49449 1.13342
upperback 1.12742 3.33327 -0.176847
thorax -2.56311 1.622 -1.1096
lowerneck -4.82786 2.62144 -3.62823
upperneck 43.9651 -3.71383 0.405443
head 16.8514 -4.5591 -0.441188
rclavicle -2.41648e-014 -1.19271e-015
rhumerus -35.9054 19.1149 -97.2786
rradius 30.3546
rwrist 22.0194
rhand -7.23687 -49.9048
rfingers 7.12502
rthumb 18.643 -79.0315
lclavicle -2.41648e-014 -1.19271e-015
lhumerus -35.0723 -5.1297 88.2412
lradius 33.8724
lwrist -16.8359
lhand 2.37061 -29.2276
lfingers 7.12502
lthumb 27.859 -1.27335
rfemur -2.39071 7.3698 29.7801
rtibia 30.261
rfoot -28.7669 -31.4902
rtoes 15.3655
lfemur -11.3176 -16.8897 -21.0271
ltibia 38.3179
lfoot -26.892 1.09352
ltoes -15.1507
2871
root 8.37818 14.9722 41.3371 -183.216 -2.8495 -177.441
lowerback 7.03015 2.68072 1.10573
upperback 1.15682 3.57563 -0.220682
thorax -2.65823 1.73986 -1.17151
lowerneck -4.83786 2.54274 -3.55902
upperneck 43.8791 -3.73568 0.29177
head 16.8006 -4.55132 -0.499384
rclavicle -4.18939e-014 -1.19271e-015
rhumerus -36.0063 18.8589 -97.2887
rradius 30.5764
rwrist 22.1557
rhand -7.17985 -49.4583
rfingers 7.12502
rthumb 18.6978 -78.5797
lclavicle -4.18939e-014 -1.19271e-015
lhumerus -35.2336 -5.20156 88.2558
lradius 33.6835
lwrist -17.5094
lhand 1.51448 -29.3533
lfingers 7.12502
lthumb 27.0402 -1.26913
rfemur -2.2485 7.58474 29.9796
rtibia 30.049
rfoot -28.6298 -31.4955
rtoes 15.3083
lfemur -11.233 -16.7393 -20.8747
ltibia 38.2962
lfoot -26.9848 1.31386
ltoes -15.7557
2872
root 8.394 14.982 41.362 -182.905 -2.04749 -177.414
lowerback 6.91952 2.99781 0.925691
upperback 1.00283 3.99056 -0.261321
thorax -2.75408 1.94965 -1.1491
lowerneck -4.86874 2.57857 -3.4875
upperneck 43.8997 -3.56857 0.0386389
head 16.8071 -4.49805 -0.601969
rclavicle 1.34677e-014 -9.14409e-015
rhumerus -36.3613 19.2032 -97.5281
rradius 30.77
rwrist 22.719
rhand -7.89307 -49.2105
rfingers 7.12502
rthumb 18.0117 -78.3965
lclavicle 1.34677e-014 -9.14409e-015
lhumerus -35.5586 -5.16954 88.2391
lradius 33.6411
lwrist -17.8332
lhand 0.603764 -28.7462
lfingers 7.12502
lthumb 26.1685 -0.529862
rfemur -2.66136 8.01913 29.9669
rtibia 29.8866
rfoot -27.98 -31.3012
rtoes 14.3806
lfemur -11.5878 -16.1609 -20.6601
ltibia 38.2641
lfoot -27.0757 1.77836
ltoes -17.189
